<svg width="14" height="14" viewBox="0 0 14 14" fill="none" xmlns="http://www.w3.org/2000/svg">
<path d="M9.63672 3.29581L7.82839 1.89581C7.59505 1.66248 7.07005 1.54581 6.72005 1.54581H4.50338C3.80338 1.54581 3.04505 2.07081 2.87005 2.77081L1.47005 7.02914C1.17839 7.84581 1.70339 8.54581 2.57839 8.54581H4.91172C5.26172 8.54581 5.55339 8.83748 5.49505 9.24581L5.20339 11.1125C5.08672 11.6375 5.43672 12.2208 5.96172 12.3958C6.42839 12.5708 7.01172 12.3375 7.24505 11.9875L9.63672 8.42914" stroke="white" stroke-miterlimit="10"/>
<path d="M12.6133 3.29585V9.01252C12.6133 9.82918 12.2633 10.1208 11.4466 10.1208H10.8633C10.0466 10.1208 9.69661 9.82918 9.69661 9.01252V3.29585C9.69661 2.47918 10.0466 2.18752 10.8633 2.18752H11.4466C12.2633 2.18752 12.6133 2.47918 12.6133 3.29585Z" stroke="white" stroke-linecap="round" stroke-linejoin="round"/>
</svg>
