<svg width="32" height="32" viewBox="0 0 32 32" fill="none" xmlns="http://www.w3.org/2000/svg">
<path d="M23.375 0.950195C20.7131 0.950195 18.3796 2.13713 16.6268 4.38276C16.3931 4.68226 16.1847 4.98188 16 5.27207C15.8153 4.98182 15.6069 4.68226 15.3732 4.38276C13.6204 2.13713 11.2869 0.950195 8.625 0.950195C3.5965 0.950195 0 5.16063 0 10.2129C0 15.99 4.73481 21.4346 15.3523 27.8667C15.5514 27.9873 15.7757 28.0476 16 28.0476C16.2243 28.0476 16.4486 27.9873 16.6477 27.8668C27.2652 21.4347 32 15.9901 32 10.213C32 5.16332 28.4064 0.950195 23.375 0.950195ZM26.1973 17.4064C23.9869 19.8728 20.6466 22.4698 16 25.3328C11.3534 22.4698 8.01313 19.8728 5.80269 17.4064C3.58031 14.9267 2.5 12.5737 2.5 10.213C2.5 6.57526 4.95837 3.4502 8.625 3.4502C10.4923 3.4502 12.0844 4.26207 13.3572 5.86332C14.3749 7.14388 14.8038 8.4662 14.8068 8.47563C14.9696 8.99782 15.4531 9.35351 16.0001 9.35351C16.5471 9.35351 17.0306 8.99788 17.1934 8.47563C17.1973 8.46301 17.6133 7.18195 18.5976 5.92095C19.8773 4.28145 21.4846 3.45013 23.375 3.45013C27.0455 3.45013 29.5 6.5782 29.5 10.2129C29.5 12.5736 28.4197 14.9266 26.1973 17.4064Z" fill="#BFBFBF"/>
</svg>
