<svg width="12" height="18" viewBox="0 0 12 18" fill="none" xmlns="http://www.w3.org/2000/svg">
<path d="M0.999751 9.70236L9.00998 17.7124C9.19525 17.8979 9.44256 18 9.70627 18C9.96997 18 10.2173 17.8979 10.4026 17.7124L10.9925 17.1227C11.3763 16.7384 11.3763 16.1138 10.9925 15.7301L4.26607 9.00373L10.9999 2.26988C11.1852 2.08447 11.2875 1.8373 11.2875 1.57374C11.2875 1.30989 11.1852 1.06272 10.9999 0.877163L10.41 0.287558C10.2246 0.102144 9.97744 1.14527e-07 9.71373 1.37581e-07C9.45003 1.60635e-07 9.20271 0.102144 9.01744 0.287558L0.999751 8.30496C0.814046 8.49096 0.712047 8.73929 0.712632 9.00329C0.712047 9.26832 0.814046 9.51651 0.999751 9.70236Z" fill="#BFBFBF"/>
</svg>
