<svg width="22" height="19" viewBox="0 0 22 19" fill="none" xmlns="http://www.w3.org/2000/svg">
<path fill-rule="evenodd" clip-rule="evenodd" d="M18.4356 6.14598C18.4356 4.69027 17.2559 3.51056 15.8002 3.51056C12.6655 3.51056 6.47661 3.51056 3.3419 3.51056C1.88619 3.51056 0.706482 4.69027 0.706482 6.14598V15.7293C0.706482 17.185 1.88619 18.3647 3.3419 18.3647H15.8002C17.2559 18.3647 18.4356 17.185 18.4356 15.7293V6.14598ZM16.9981 6.14598V15.7293C16.9981 16.3906 16.4615 16.9272 15.8002 16.9272C12.6655 16.9272 6.47661 16.9272 3.3419 16.9272C2.68065 16.9272 2.14398 16.3906 2.14398 15.7293V6.14598C2.14398 5.48473 2.68065 4.94806 3.3419 4.94806H15.8002C16.4615 4.94806 16.9981 5.48473 16.9981 6.14598Z" fill="#BFBFBF"/>
<path fill-rule="evenodd" clip-rule="evenodd" d="M4.26286 4.9471L4.30023 4.94806L4.3309 4.94423C4.4689 4.9241 5.01898 4.80718 5.01898 4.21685V3.27098C5.01898 2.95281 5.14548 2.64902 5.36973 2.42381C5.59494 2.19956 5.89873 2.07306 6.2169 2.07306H18.6752C19.3365 2.07306 19.8731 2.60973 19.8731 3.27098V12.8543C19.8731 13.1725 19.7467 13.4763 19.5224 13.7015C19.2972 13.9257 18.9934 14.0522 18.6752 14.0522H17.7169C17.3201 14.0522 16.9981 14.3742 16.9981 14.771C16.9981 15.1677 17.3201 15.4897 17.7169 15.4897H18.6752C19.3739 15.4897 20.0447 15.2118 20.5392 14.7183C21.0327 14.2238 21.3106 13.5529 21.3106 12.8543V3.27098C21.3106 1.81527 20.1309 0.635559 18.6752 0.635559C15.5405 0.635559 9.35161 0.635559 6.2169 0.635559C5.51827 0.635559 4.84744 0.913476 4.35294 1.40702C3.8594 1.90152 3.58148 2.57235 3.58148 3.27098V4.21685V4.22931C3.58148 4.6136 3.88336 4.92793 4.26286 4.9471Z" fill="#BFBFBF"/>
<path fill-rule="evenodd" clip-rule="evenodd" d="M8.13786 10.6981C6.68311 10.6981 5.50244 11.8787 5.50244 13.3335C5.50244 14.7882 6.68311 15.9689 8.13786 15.9689C9.59261 15.9689 10.7733 14.7882 10.7733 13.3335C10.7733 11.8787 9.59261 10.6981 8.13786 10.6981ZM8.13786 12.1356C8.79911 12.1356 9.33577 12.6722 9.33577 13.3335C9.33577 13.9947 8.79911 14.5314 8.13786 14.5314C7.47661 14.5314 6.93994 13.9947 6.93994 13.3335C6.93994 12.6722 7.47661 12.1356 8.13786 12.1356Z" fill="#BFBFBF"/>
<path fill-rule="evenodd" clip-rule="evenodd" d="M10.769 13.3335V7.96777L12.5266 9.13981C12.8562 9.36022 13.3028 9.27014 13.5232 8.94047C13.7436 8.61081 13.6536 8.16422 13.3239 7.94381L10.4489 6.02714C10.2285 5.88052 9.94482 5.86614 9.71098 5.99168C9.47715 6.11627 9.33148 6.35968 9.33148 6.62514V13.3335C9.33148 13.7302 9.65348 14.0522 10.0502 14.0522C10.447 14.0522 10.769 13.7302 10.769 13.3335Z" fill="#BFBFBF"/>
</svg>
