<svg width="20" height="17" viewBox="0 0 20 17" fill="none" xmlns="http://www.w3.org/2000/svg">
<path d="M14.6094 0.0320435C12.9457 0.0320435 11.4873 0.773879 10.3918 2.17739C10.2457 2.36458 10.1154 2.55185 10 2.73322C9.88457 2.55181 9.75434 2.36458 9.60824 2.17739C8.51273 0.773879 7.0543 0.0320435 5.39062 0.0320435C2.24781 0.0320435 0 2.66357 0 5.82126C0 9.43193 2.95926 12.8348 9.59519 16.8549C9.71961 16.9302 9.85981 16.9679 10 16.9679C10.1402 16.9679 10.2804 16.9302 10.4048 16.8549C17.0407 12.8349 20 9.43196 20 5.8213C20 2.66525 17.754 0.0320435 14.6094 0.0320435ZM16.3733 10.3172C14.9918 11.8586 12.9041 13.4818 10 15.2712C7.0959 13.4818 5.0082 11.8586 3.62668 10.3172C2.2377 8.76735 1.5625 7.29673 1.5625 5.8213C1.5625 3.54771 3.09898 1.59454 5.39062 1.59454C6.55766 1.59454 7.55273 2.10197 8.34824 3.10275C8.98434 3.9031 9.25234 4.72954 9.25422 4.73544C9.35598 5.06181 9.65816 5.28411 10 5.28411C10.3419 5.28411 10.6441 5.06185 10.7459 4.73544C10.7483 4.72755 11.0083 3.92689 11.6235 3.13876C12.4233 2.11407 13.4279 1.5945 14.6094 1.5945C16.9034 1.5945 18.4375 3.54954 18.4375 5.82126C18.4375 7.29669 17.7623 8.76731 16.3733 10.3172Z" fill="#BFBFBF"/>
</svg>
